<svg width="400" height="400" viewBox="0 0 400 400" fill="none" xmlns="http://www.w3.org/2000/svg">
<g clip-path="url(#clip0_31_78)">
<rect width="400" height="400" rx="81" fill="url(#paint0_linear_31_78)"/>
<rect width="400" height="400" rx="81" stroke="black"/>
<path d="M98 130.25L126 249.25L158 130.25H180.5L211 246.75L218.5 215.75L231 234.75L221.5 268.75H203.5L169.5 147.75L135.5 268.75H117.5L80 130.25H98Z" fill="white"/>
<path d="M98 130.25L126 249.25L158 130.25H180.5L211 246.75L218.5 215.75L231 234.75L221.5 268.75H203.5L169.5 147.75L135.5 268.75H117.5L80 130.25H98Z" stroke="black"/>
<path d="M261.422 208.812C261.422 210.188 260.828 211.469 259.641 212.656C258.484 213.812 257.328 214.391 256.172 214.391C255.922 214.453 255.719 214.484 255.562 214.484L254.531 214.578C252.969 214.578 251.562 214.062 250.312 213.031C249.094 212 248.484 210.672 248.484 209.047V208.203C248.484 206.578 249.125 205.219 250.406 204.125C251.719 203 253.219 202.438 254.906 202.438H255.141L256.734 202.625C257.703 202.625 258.703 203.156 259.734 204.219C260.797 205.25 261.328 206.297 261.328 207.359L261.422 207.781V208.812ZM246.516 229.719C244.891 228.938 244.078 228.203 244.078 227.516C244.078 226.828 244.406 226.281 245.062 225.875C247.344 224.5 250.953 223.812 255.891 223.812H257.25C258.938 223.812 259.891 224.594 260.109 226.156C260.234 227 260.297 232.688 260.297 243.219C260.297 253.719 260.516 259.75 260.953 261.312C261.391 262.844 262.438 264.031 264.094 264.875C265.75 265.688 266.578 266.516 266.578 267.359C266.578 268.547 262.703 269.141 254.953 269.141L253.547 269.188H247.828C245.547 269.188 244.406 268.625 244.406 267.5C244.406 266.562 245.094 265.656 246.469 264.781C247.875 263.906 248.844 262.938 249.375 261.875C249.969 260.719 250.266 258.016 250.266 253.766L250.312 252.266V250.812L250.359 248.609V247.156L250.406 245.703C250.406 238.297 250.156 233.984 249.656 232.766C249.188 231.516 248.141 230.5 246.516 229.719Z" fill="white"/>
<path d="M320 268.5H299.5L255 145L242.5 180.5L231 166L245 129H264L320 268.5Z" fill="white"/>
<path d="M320 268.5H299.5L255 145L242.5 180.5L231 166L245 129H264L320 268.5Z" stroke="black"/>
</g>
<defs>
<linearGradient id="paint0_linear_31_78" x1="200" y1="0" x2="200" y2="400" gradientUnits="userSpaceOnUse">
<stop stop-color="#008B74"/>
<stop offset="1" stop-color="#3F2D5C"/>
</linearGradient>
<clipPath id="clip0_31_78">
<rect width="400" height="400" fill="white"/>
</clipPath>
</defs>
</svg>
